<svg xmlns="http://www.w3.org/2000/svg" width="49" height="49" viewBox="0 0 49 49">
  <g id="Group_34886" data-name="Group 34886" transform="translate(-231 -5100.322)">
    <g id="Ellipse_34" data-name="Ellipse 34" transform="translate(231 5100.322)" stroke="#333" stroke-width="1">
      <circle cx="24.5" cy="24.5" r="24.5" stroke="none"/>
      <circle cx="24.5" cy="24.5" r="24" fill="none"/>
    </g>
    <path id="Icon_simple-whatsapp" data-name="Icon simple-whatsapp" d="M15.675,12.884c-.27-.134-1.583-.777-1.828-.865s-.424-.134-.6.134-.691.864-.846,1.041-.313.188-.579.067a7.271,7.271,0,0,1-2.153-1.33,8.127,8.127,0,0,1-1.487-1.854c-.156-.269-.017-.417.116-.551s.27-.309.4-.469a2.271,2.271,0,0,0,.266-.444.492.492,0,0,0-.022-.469c-.067-.134-.6-1.451-.826-1.976s-.436-.457-.6-.457S7.185,5.7,7.005,5.7a1.01,1.01,0,0,0-.714.322,2.991,2.991,0,0,0-.936,2.217A5.242,5.242,0,0,0,6.447,10.99a11.945,11.945,0,0,0,4.569,4.018c.64.269,1.138.43,1.526.563a3.706,3.706,0,0,0,1.684.108A2.757,2.757,0,0,0,16.033,14.4a2.217,2.217,0,0,0,.161-1.277c-.066-.121-.242-.188-.511-.309M10.8,19.484H10.79a8.962,8.962,0,0,1-4.528-1.236l-.322-.192L2.58,18.93l.9-3.265-.214-.336A8.885,8.885,0,0,1,17.1,4.368,8.768,8.768,0,0,1,19.71,10.63a8.9,8.9,0,0,1-8.9,8.855m7.572-16.4A10.877,10.877,0,0,0,10.79,0,10.651,10.651,0,0,0,1.519,15.98L0,21.5l5.675-1.48a10.806,10.806,0,0,0,5.115,1.3H10.8A10.7,10.7,0,0,0,21.5,10.66a10.566,10.566,0,0,0-3.131-7.535" transform="translate(244.237 5114.072)" fill="#fff"/>
  </g>
</svg>
